<svg width="345" height="345" viewBox="0 0 345 345" fill="none" xmlns="http://www.w3.org/2000/svg">
<g filter="url(#filter0_d_504_1143)">
<circle cx="172.397" cy="172.396" r="140.761" transform="rotate(-15 172.397 172.396)" fill="#FFFB3F"/>
<circle cx="172.397" cy="172.396" r="136.761" transform="rotate(-15 172.397 172.396)" stroke="black" stroke-width="8"/>
</g>
<mask id="path-3-inside-1_504_1143" fill="white">
<path d="M255.602 162.65C258.433 173.215 259.155 184.233 257.727 195.077C256.3 205.92 252.75 216.376 247.282 225.848C241.813 235.319 234.533 243.621 225.856 250.279C217.179 256.937 207.276 261.821 196.712 264.652C186.147 267.483 175.129 268.205 164.285 266.777C153.442 265.35 142.986 261.8 133.514 256.332C124.043 250.863 115.741 243.583 109.083 234.906C102.425 226.229 97.5409 216.326 94.7102 205.761L175.156 184.206L255.602 162.65Z"/>
</mask>
<path d="M255.602 162.65C258.433 173.215 259.155 184.233 257.727 195.077C256.3 205.92 252.75 216.376 247.282 225.848C241.813 235.319 234.533 243.621 225.856 250.279C217.179 256.937 207.276 261.821 196.712 264.652C186.147 267.483 175.129 268.205 164.285 266.777C153.442 265.35 142.986 261.8 133.514 256.332C124.043 250.863 115.741 243.583 109.083 234.906C102.425 226.229 97.5409 216.326 94.7102 205.761L175.156 184.206L255.602 162.65Z" fill="white" stroke="black" stroke-width="16" mask="url(#path-3-inside-1_504_1143)"/>
<circle cx="119.647" cy="160.311" r="11.7301" fill="black"/>
<circle cx="207.232" cy="136.851" r="11.7301" fill="black"/>
<defs>
<filter id="filter0_d_504_1143" x="31.6006" y="31.6003" width="293.592" height="293.592" filterUnits="userSpaceOnUse" color-interpolation-filters="sRGB">
<feFlood flood-opacity="0" result="BackgroundImageFix"/>
<feColorMatrix in="SourceAlpha" type="matrix" values="0 0 0 0 0 0 0 0 0 0 0 0 0 0 0 0 0 0 127 0" result="hardAlpha"/>
<feOffset dx="12" dy="12"/>
<feComposite in2="hardAlpha" operator="out"/>
<feColorMatrix type="matrix" values="0 0 0 0 0 0 0 0 0 0 0 0 0 0 0 0 0 0 1 0"/>
<feBlend mode="normal" in2="BackgroundImageFix" result="effect1_dropShadow_504_1143"/>
<feBlend mode="normal" in="SourceGraphic" in2="effect1_dropShadow_504_1143" result="shape"/>
</filter>
</defs>
</svg>
