<svg width="459" height="362" viewBox="0 0 459 362" fill="none" xmlns="http://www.w3.org/2000/svg">
<path d="M441.95 19.8054L441.951 19.8066C459.038 41.3716 460.724 78.971 449.04 122.751C437.387 166.417 412.54 215.784 377.252 260.443C334.354 314.514 286.12 349.122 247.189 358.114L247.143 358.124L247.098 358.138C241.561 359.789 235.514 360.573 229.049 360.475L229.027 360.475L229.004 360.475C222.539 360.573 216.493 359.789 210.955 358.138L210.91 358.124L210.864 358.114C171.932 349.122 123.699 314.613 80.8027 260.444L80.8025 260.444C45.4644 215.835 20.6171 166.492 8.97611 122.826C-2.69459 79.0486 -0.985049 41.4225 16.1027 19.8062C33.0737 -1.59948 62.4584 -3.79068 96.9513 10.9051C131.391 25.5783 170.403 56.936 205.75 101.606C213.625 111.574 221 121.739 227.775 132.002L229.024 133.893L230.277 132.004C237.154 121.638 244.43 111.572 252.303 101.606C287.65 56.9363 326.687 25.5785 361.139 10.9052C395.647 -3.79144 425.03 -1.59834 441.95 19.8054Z" fill="#EF5DA8" stroke="black" stroke-width="3"/>
</svg>
