<svg width="477" height="477" viewBox="0 0 477 477" fill="none" xmlns="http://www.w3.org/2000/svg">
<path d="M248.736 225.973L248.221 228.279L250.527 227.764C277.015 221.846 318.635 216.78 355.387 213.191C392.15 209.601 423.88 207.506 430.583 207.506C447.574 207.506 461.327 221.259 461.327 238.25C461.327 255.241 447.574 268.994 430.583 268.994C423.88 268.994 392.15 266.899 355.387 263.309C318.635 259.72 277.015 254.654 250.527 248.736L248.221 248.221L248.736 250.527C254.654 277.015 259.72 318.635 263.309 355.387C266.899 392.149 268.994 423.88 268.994 430.583C268.994 447.574 255.241 461.327 238.25 461.327C221.259 461.327 207.506 447.574 207.506 430.583C207.506 423.88 209.601 392.15 213.191 355.387C216.78 318.635 221.846 277.015 227.764 250.527L228.279 248.221L225.973 248.736C199.485 254.654 157.865 259.72 121.113 263.309C84.3505 266.899 52.6204 268.994 45.917 268.994C28.9263 268.994 15.1729 255.241 15.1729 238.25C15.1729 221.259 28.9263 207.506 45.917 207.506C52.6204 207.506 84.3505 209.601 121.113 213.191C157.865 216.78 199.485 221.846 225.973 227.764L228.279 228.279L227.764 225.973C221.846 199.485 216.78 157.865 213.191 121.113C209.601 84.3505 207.506 52.6203 207.506 45.9169C207.506 28.9263 221.259 15.1729 238.25 15.1729C255.241 15.1729 268.994 28.9263 268.994 45.917C268.994 52.6203 266.899 84.3505 263.309 121.113C259.72 157.865 254.654 199.485 248.736 225.973Z" fill="#00EB90" stroke="black" stroke-width="3"/>
</svg>
