<svg width="1291" height="1231" viewBox="0 0 1291 1231" fill="none" xmlns="http://www.w3.org/2000/svg">
<g filter="url(#filter0_d_503_1142)">
<path d="M613.332 21.7599C618.421 6.09758 640.579 6.09758 645.668 21.7599L780.037 435.304C782.313 442.308 788.84 447.051 796.205 447.051H1231.03C1247.5 447.051 1254.35 468.124 1241.02 477.804L889.241 733.389C883.283 737.717 880.79 745.391 883.066 752.395L1017.43 1165.94C1022.52 1181.6 1004.6 1194.63 991.274 1184.95L639.492 929.362C633.534 925.033 625.466 925.033 619.508 929.362L267.726 1184.95C254.403 1194.63 236.477 1181.6 241.566 1165.94L375.934 752.395C378.21 745.391 375.717 737.717 369.759 733.389L17.9769 477.804C4.65376 468.124 11.5009 447.051 27.9692 447.051H462.795C470.16 447.051 476.687 442.308 478.963 435.304L613.332 21.7599Z" fill="#FFFB3F"/>
<path d="M613.332 21.7599C618.421 6.09758 640.579 6.09758 645.668 21.7599L780.037 435.304C782.313 442.308 788.84 447.051 796.205 447.051H1231.03C1247.5 447.051 1254.35 468.124 1241.02 477.804L889.241 733.389C883.283 737.717 880.79 745.391 883.066 752.395L1017.43 1165.94C1022.52 1181.6 1004.6 1194.63 991.274 1184.95L639.492 929.362C633.534 925.033 625.466 925.033 619.508 929.362L267.726 1184.95C254.403 1194.63 236.477 1181.6 241.566 1165.94L375.934 752.395C378.21 745.391 375.717 737.717 369.759 733.389L17.9769 477.804C4.65376 468.124 11.5009 447.051 27.9692 447.051H462.795C470.16 447.051 476.687 442.308 478.963 435.304L613.332 21.7599Z" stroke="black" stroke-width="20"/>
</g>
<defs>
<filter id="filter0_d_503_1142" x="0.91748" y="0.0131836" width="1289.17" height="1230.3" filterUnits="userSpaceOnUse" color-interpolation-filters="sRGB">
<feFlood flood-opacity="0" result="BackgroundImageFix"/>
<feColorMatrix in="SourceAlpha" type="matrix" values="0 0 0 0 0 0 0 0 0 0 0 0 0 0 0 0 0 0 127 0" result="hardAlpha"/>
<feOffset dx="25" dy="25"/>
<feGaussianBlur stdDeviation="3.5"/>
<feComposite in2="hardAlpha" operator="out"/>
<feColorMatrix type="matrix" values="0 0 0 0 0.000488281 0 0 0 0 0.000488281 0 0 0 0 0.000488281 0 0 0 1 0"/>
<feBlend mode="normal" in2="BackgroundImageFix" result="effect1_dropShadow_503_1142"/>
<feBlend mode="normal" in="SourceGraphic" in2="effect1_dropShadow_503_1142" result="shape"/>
</filter>
</defs>
</svg>
